<?xml version="1.0" encoding="utf-8"?>
<!-- Generator: Adobe Illustrator 18.1.0, SVG Export Plug-In . SVG Version: 6.00 Build 0)  -->
<svg version="1.1" id="Layer_1" xmlns="http://www.w3.org/2000/svg" xmlns:xlink="http://www.w3.org/1999/xlink" x="0px" y="0px"
	 viewBox="0 0 72 72" enable-background="new 0 0 72 72" xml:space="preserve">
<path id="Blue_1_" fill="#3D5A98" d="M67.9,71.8c2.2,0,4-1.8,4-4V4.1c0-2.2-1.8-4-4-4H4.1c-2.2,0-4,1.8-4,4v63.7c0,2.2,1.8,4,4,4
	H67.9z"/>
<path id="f" fill="#FFFFFF" d="M49.6,71.8V44.1h9.3l1.4-10.8H49.6v-6.9c0-3.1,0.9-5.3,5.4-5.3l5.7,0v-9.7c-1-0.1-4.4-0.4-8.3-0.4
	c-8.3,0-13.9,5-13.9,14.3v8h-9.3v10.8h9.3v27.7H49.6z"/>
</svg>
