<?xml version="1.0" encoding="utf-8"?>
<!-- Generator: Adobe Illustrator 18.1.0, SVG Export Plug-In . SVG Version: 6.00 Build 0)  -->
<svg version="1.1" id="Layer_1" xmlns="http://www.w3.org/2000/svg" xmlns:xlink="http://www.w3.org/1999/xlink" x="0px" y="0px"
	 viewBox="0 4.7 72 50.5" enable-background="new 0 4.7 72 50.5" xml:space="preserve">
<title>48_px - Regular - 70 Basic Icons</title>
<g>
	<path d="M68.2,12.8H3.8C1.7,12.8,0,11.1,0,9s1.7-3.8,3.8-3.8h64.4C70.3,5.2,72,6.9,72,9S70.3,12.8,68.2,12.8z"/>
	<path d="M68.2,33.6H3.8c-2.1,0-3.8-1.7-3.8-3.8s1.7-3.8,3.8-3.8h64.4c2.1,0,3.8,1.7,3.8,3.8S70.3,33.6,68.2,33.6z"/>
	<path d="M68.2,54.5H3.8c-2.1,0-3.8-1.7-3.8-3.8c0-2.1,1.7-3.8,3.8-3.8h64.4c2.1,0,3.8,1.7,3.8,3.8C72,52.8,70.3,54.5,68.2,54.5z"/>
</g>
</svg>
